<svg width="512" height="512" viewBox="0 0 512 512" fill="none" xmlns="http://www.w3.org/2000/svg">
  <!-- Background shape -->
  <rect x="106" y="106" width="300" height="300" rx="20" fill="#f8fafc" stroke="#e2e8f0" stroke-width="2"/>
  
  <!-- 404 Text -->
  <path d="M170 210V250H140V290H110V190H140V210H170Z" fill="#64748b" />
  <circle cx="200" cy="240" r="30" fill="#64748b" />
  <path d="M260 190H290V250H320V290H290V320H260V290H230V250H260V190Z" fill="#64748b" />
  
  <!-- Simple face -->
  <circle cx="200" cy="230" r="6" fill="#475569" />
  <circle cx="280" cy="230" r="6" fill="#475569" />
  <path d="M220 280C220 280 230 270 240 270C250 270 260 280 260 280" stroke="#475569" stroke-width="3" stroke-linecap="round" />
  
  <!-- Decorative lines -->
  <line x1="150" y1="340" x2="350" y2="340" stroke="#e2e8f0" stroke-width="2" />
  <line x1="150" y1="350" x2="300" y2="350" stroke="#e2e8f0" stroke-width="2" />
  <line x1="150" y1="360" x2="250" y2="360" stroke="#e2e8f0" stroke-width="2" />
</svg> 